# xmcd CD database file
#
# Track frame offsets:
#	150
#	12752
#	27945
#	41037
#	56810
#	70502
#	81722
#	94810
#	113785
#	125829
#	142155
#	155467
#	171109
#	189117
#	202705
#	214937
#	228520
#	240417
#	257225
#	267657
#	288662
#	304912
#
# Disc length: 4283 seconds
#
# Revision: 0
# Processed by: cddbd v1.5.2PL0 Copyright (c) Steve Scherf et al.
# Submitted via: CDex 1.70beta2
#
DISCID=4710b916
DTITLE=ChartBreakers - ChartBreakers CGC-540
DYEAR=1900
DGENRE=Country
TTITLE0=Reba McEntire - How Blue
TTITLE1=Keith Whitley - I Wonder Do You Think Of Me
TTITLE2=Janie Fricke - I'll Need someone To Hold Me
TTITLE3=Oak Ridge Boys - Little Things
TTITLE4=Dwight Yoakam - Nothing's Changed Here
TTITLE5=Eddie Rabbitt - Two Dollars In The Juke Box
TTITLE6=Dwight Yoakam and Buck Owens - Streets Of Bakersfield
TTITLE7=Johnny Cash - Sunday Morning Coming Down
TTITLE8=Patsy Cline - Sweet Dreams
TTITLE9=Kathy Mattea - She Came From Fort Worth
TTITLE10=Crystal Gayle - Talking In Your Sleep
TTITLE11=Dolly Parton - Tennessee Homesick Blues
TTITLE12=John Conlee - Old School
TTITLE13=Crystal Gayle - Why Have You Left The One You Left Me For
TTITLE14=Kenny Rogers - Reuben James
TTITLE15=Jerry Lee Lewis - Thirty-Nine And Holding
TTITLE16=Patsy Cline - Walkin' After Midnight
TTITLE17=Eddie Rabbitt - On Second Thought
TTITLE18=John Anderson - She Just Started Liking Cheatin' Songs
TTITLE19=Tanya Tucker - Texas (When I Die)
TTITLE20=Conway Twitty - Rose
TTITLE21=Anne Murray - You Need Me
EXTD=YEAR: 1900
EXTT0=
EXTT1=
EXTT2=
EXTT3=
EXTT4=
EXTT5=
EXTT6=
EXTT7=
EXTT8=
EXTT9=
EXTT10=
EXTT11=
EXTT12=
EXTT13=
EXTT14=
EXTT15=
EXTT16=
EXTT17=
EXTT18=
EXTT19=
EXTT20=
EXTT21=
PLAYORDER=
